<?xml version="1.0" encoding="UTF-8"?>
<!DOCTYPE svg PUBLIC "-//W3C//DTD SVG 1.0//EN" "http://www.w3.org/TR/2001/REC-SVG-20010904/DTD/svg10.dtd">
<!-- Creator: CorelDRAW 2018 (64-Bit) -->
<svg xmlns="http://www.w3.org/2000/svg" xml:space="preserve" width="76.645mm" height="71.9755mm" version="1.0" shape-rendering="geometricPrecision" text-rendering="geometricPrecision" image-rendering="optimizeQuality" fill-rule="evenodd" clip-rule="evenodd"
viewBox="0 0 7693.89 7225.15"
 xmlns:xlink="http://www.w3.org/1999/xlink">
 <g id="Layer_x0020_1">
  <metadata id="CorelCorpID_0Corel-Layer"/>
  <g id="_1404668061392">
   <path fill="#291509" d="M3755.39 5.4c-194.72,49.11 -920.87,568.72 -1148.91,704.11 -718.75,426.72 -1599.13,1055.25 -2293.89,1459.45 -272.25,158.39 -312.64,220.56 -312.57,615.6l4.88 1876.39c36.12,280.15 242.67,330.08 452.79,471.94 378.6,255.6 768.75,494.77 1149.01,728.87 382.41,235.43 758.67,497.78 1140.81,734.55 195.69,121.23 363.52,227.09 565.37,356.79 162.59,104.47 386.87,324.55 625.23,260.59l3418.27 -2180.07c277.97,-196.88 339.67,-129.55 337.47,-583.21l-1.98 -1879.37c-20.83,-312.16 -230.86,-353.47 -432.01,-487.9l-2299.31 -1454.62c-214.08,-128.7 -942.91,-689.24 -1205.14,-623.12z"/>
   <path fill="#6D452E" d="M573.08 4544.16c365.07,171.86 2810.82,1857.3 2990.12,1833.66 93.24,-197.43 35.71,-532.75 35.15,-759.77 -0.51,-215.58 57.18,-566.61 -100.28,-694.17l-1452.65 -884.55c-85.38,-55.24 -142.53,-106.18 -229.08,-157.97l-712.02 -457.17c-160.88,-107.31 -372.01,-264.44 -530.64,-247.29 -53.47,192.28 -38.69,1150.39 -0.61,1367.26z"/>
   <path fill="#6D452E" d="M2640.18 1438.74c71.75,172.27 247.45,222.73 517.97,393.34 133.16,83.98 519.64,349.31 617.7,369.68 229.22,47.61 741.42,-378.94 950.39,-504.44 72.09,-43.3 255.94,-131.85 282.73,-209.39 37.25,-107.83 -334.05,-321.12 -488.69,-418.14 -126.69,-79.49 -185.87,-95.1 -307.74,-187.28 -450.48,-340.75 -570.49,-126.26 -1428.3,426.95l-144.07 129.26z"/>
   <path fill="#6D452E" d="M4431.69 2633.09c60.14,50 178,89.47 276.37,160.93 108.39,78.74 195.28,135.8 303.98,192.32 641.38,333.51 451.3,543.75 1238.86,-13.01l283.87 -177c136.58,-98.43 195.69,-70.94 291.28,-223.82 -78.57,-131.15 -143.83,-138.98 -264.21,-216.07 -732.2,-468.89 -848.29,-670.99 -1266.81,-374.82 -124.77,88.3 -190.49,123.65 -303.03,194.17 -297.81,186.62 -531.44,278.05 -560.32,457.28z"/>
   <path fill="#6D452E" d="M849.15 2516.43c28.5,129.84 -35.74,74.99 245.99,243.42 110.22,65.89 215.67,132.6 308.74,187.1 376.79,220.67 599.33,540.73 947.26,268.13l299.32 -195.28c226.62,-139.64 504.36,-271.25 571.88,-447.29 -109.81,-144.62 -152.19,-118.2 -278.94,-209.93 -127.38,-92.2 -804.35,-525.78 -885.6,-532.51 -172.43,-14.28 -733.63,384.3 -903.08,507.29 -112.43,81.59 -236.81,124.46 -305.58,179.06z"/>
   <path fill="#6D452E" d="M2677.42 3705.75c90.69,142.47 1036.65,719.57 1159.31,724.6 189.62,7.76 812.84,-442.47 1027.44,-577.84 164.51,-103.78 252.3,-147.31 -86.14,-350.64 -1086.23,-652.61 -759.31,-721.93 -1532.45,-206.69 -178.28,118.81 -472.31,250.32 -568.15,410.57z"/>
  </g>
 </g>
</svg>
